<svg width="56" height="56" viewBox="24 4 56 56" fill="none" xmlns="http://www.w3.org/2000/svg">
<path d="M24 4C42.6793 4 61.3207 4 80 4C80 22.6793 80 41.3585 80 60C61.3585 60 42.6793 60 24 60C24 41.2829 24 22.6415 24 4ZM74.1013 33.6448C72.9669 31.603 71.4166 30.2039 69.1857 29.7124C67.5976 29.3342 66.0094 29.3342 64.4213 29.6745C59.2789 30.7333 57.0858 36.9345 60.4132 41.056C61.5854 42.4929 63.1357 43.3626 64.7616 44.1188C66.1985 44.7995 67.6732 45.4423 69.1101 46.1607C70.0932 46.6523 70.5091 47.5598 70.3957 48.6563C70.2822 49.7529 69.526 50.3579 68.5807 50.6982C66.4632 51.4544 64.0054 50.7738 62.5685 48.9966C62.266 48.6185 61.9635 48.2026 61.661 47.7866C60.2242 48.6185 58.8251 49.4126 57.4261 50.2444C58.2957 51.946 59.5057 53.3072 61.1695 54.2147C64.0054 55.765 66.9926 55.9919 70.0554 55.2356C72.0594 54.7441 73.761 53.7232 74.8197 51.8704C76.7859 48.3538 75.6516 43.9676 72.1729 41.8123C70.6225 40.867 68.8832 40.2242 67.2573 39.3923C66.4632 38.9764 65.6313 38.5982 64.9507 38.0689C63.7407 37.0858 63.9676 35.1195 65.3288 34.3633C66.6523 33.607 68.5051 34.0608 69.526 35.3842C69.7529 35.6489 69.9041 35.9514 70.131 36.2539C71.4166 35.3842 72.74 34.5145 74.1013 33.6448ZM38.7468 50.8116C39.503 52.4375 40.5996 53.7232 42.1499 54.555C44.1539 55.6516 46.3471 55.8406 48.578 55.5003C50.582 55.1978 52.2458 54.2903 53.3423 52.4753C54.2498 50.9629 54.5145 49.2991 54.5145 47.5219C54.5145 41.7745 54.5145 36.027 54.5145 30.2795C54.5145 30.1283 54.5145 29.9392 54.5145 29.7502C52.7373 29.7502 51.0358 29.7502 49.2586 29.7502C49.2586 29.977 49.2586 30.1661 49.2586 30.393C49.2586 36.0648 49.2586 41.6988 49.2586 47.3707C49.2586 47.9001 49.2208 48.4673 49.1452 48.9966C48.9939 49.8663 48.5402 50.5091 47.6705 50.7738C46.0446 51.2654 44.7211 50.7738 43.7758 49.3747C43.549 48.9966 43.3221 48.6185 43.0574 48.2404C41.5827 49.1101 40.1837 49.9419 38.7468 50.8116Z" fill="white"/>
</svg>
